<svg xmlns="http://www.w3.org/2000/svg" fill="none" viewBox="0 0 35 32">
  <path fill="url(#prefix__paint0_linear)"
    d="M15.259 26.865a4.045 4.045 0 01-1.133 2.917 4.005 4.005 0 01-4.432.901 4.027 4.027 0 01-2.445-3.818 3.97 3.97 0 012.027-3.414c-.024.109.09-.055 0 0l1.86-1.652a8.495 8.495 0 002.304-5.793c0-2.926-1.711-5.901-4.17-7.457.094.055-.036-.094 0 0a3.975 3.975 0 01-2.026-3.413 4.042 4.042 0 011.133-2.918 4.006 4.006 0 014.43-.901 4.026 4.026 0 012.445 3.818 8.52 8.52 0 002.348 5.832l.817.8c.326.285.668.551 1.024.798.62.33 1.142.826 1.504 1.431a3.901 3.901 0 01-1.504 5.442c.033-.067-.063.036 0 0a8.968 8.968 0 00-3.024 3.183 9.015 9.015 0 00-1.158 4.244zm4.483-21.742c0 .796.235 1.575.676 2.237a4.01 4.01 0 001.798 1.482 3.99 3.99 0 004.366-.873 4.042 4.042 0 00.869-4.386 4.02 4.02 0 00-1.476-1.806 3.994 3.994 0 00-5.058.501 4.038 4.038 0 00-1.175 2.845zm4.007 17.717c-.792 0-1.567.236-2.226.678a4.02 4.02 0 00-1.476 1.806 4.041 4.041 0 00.869 4.387 3.99 3.99 0 004.366.873A4.01 4.01 0 0027.08 29.1a4.04 4.04 0 00-.5-5.082 4 4 0 00-2.832-1.18v.002zM34 15.994a4.04 4.04 0 00-.675-2.236 4.01 4.01 0 00-1.798-1.483 3.99 3.99 0 00-4.367.873 4.042 4.042 0 00-.87 4.387 4.02 4.02 0 001.477 1.806 3.993 3.993 0 005.058-.502A4.04 4.04 0 0034 15.993v.001z" />
  <path fill="url(#prefix__paint1_linear)"
    d="M5.006 11.97c-.793 0-1.567.235-2.226.677a4.022 4.022 0 00-1.476 1.807 4.042 4.042 0 00.87 4.386 4.001 4.001 0 004.365.873 4.01 4.01 0 001.798-1.483 4.038 4.038 0 00-.5-5.08 4.004 4.004 0 00-2.83-1.18z" />
  <defs>
    <linearGradient id="prefix__paint0_linear" x1="1" x2="34" y1="16" y2="16" gradientUnits="userSpaceOnUse">
      <stop stop-color="#7C3AED" />
      <stop offset="1" stop-color="#4F46E5" />
    </linearGradient>
    <linearGradient id="prefix__paint1_linear" x1="5.006" x2="5.006" y1="11.969" y2="20.018"
      gradientUnits="userSpaceOnUse">
      <stop stop-color="#7C3AED" />
      <stop offset="1" stop-color="#4F46E5" />
    </linearGradient>
  </defs>
</svg>